<svg id="svg" version="1.1" xmlns="http://www.w3.org/2000/svg" xmlns:xlink="http://www.w3.org/1999/xlink" width="400" height="59.03614457831325" viewBox="0, 0, 400,59.03614457831325"><g id="svgg"><path id="path0" d="M117.252 1.828 C 116.748 2.834,115.649 4.765,114.811 6.120 C 112.205 10.330,111.537 11.277,108.839 14.583 C 108.016 15.592,107.341 16.517,107.338 16.639 C 107.311 17.912,96.506 28.793,94.977 29.088 C 94.762 29.129,94.399 29.301,94.169 29.471 C 93.938 29.640,93.000 30.294,92.083 30.924 C 91.167 31.553,90.378 32.123,90.331 32.190 C 90.170 32.415,85.929 34.712,84.000 35.618 C 82.946 36.114,81.483 36.812,80.750 37.169 C 79.017 38.015,75.763 39.214,73.267 39.928 C 72.176 40.239,71.257 40.521,71.225 40.553 C 70.854 40.924,69.567 57.622,69.884 57.940 C 70.302 58.357,81.643 54.986,83.948 53.759 C 84.388 53.525,84.804 53.333,84.873 53.333 C 85.389 53.333,93.256 49.311,94.658 48.331 C 94.892 48.167,95.908 47.525,96.917 46.903 C 99.675 45.203,102.346 43.418,103.000 42.836 C 103.321 42.551,103.790 42.192,104.042 42.039 C 104.294 41.887,104.500 41.641,104.500 41.493 C 104.500 41.344,105.554 40.413,106.866 39.404 C 109.726 37.204,111.990 35.192,115.054 32.128 C 116.322 30.861,117.452 29.845,117.567 29.871 C 117.793 29.920,119.128 28.474,120.217 27.000 C 120.590 26.496,121.016 25.971,121.165 25.833 C 121.696 25.342,123.476 22.879,124.795 20.809 C 125.534 19.652,126.271 18.548,126.435 18.357 C 126.878 17.839,129.765 12.647,130.616 10.835 C 131.025 9.965,131.426 9.212,131.507 9.162 C 131.852 8.949,135.252 1.448,135.448 0.468 L 135.542 0.000 126.856 0.000 L 118.169 0.000 117.252 1.828 M61.917 0.601 C 53.029 0.975,44.838 1.982,37.500 3.603 C 34.733 4.213,31.803 4.992,31.667 5.152 C 31.621 5.206,31.471 5.262,31.333 5.276 C 29.877 5.427,20.184 9.283,18.417 10.415 C 17.958 10.709,16.801 11.380,15.846 11.906 C 8.594 15.903,2.633 21.956,0.597 27.390 C -0.077 29.191,-0.060 29.111,0.171 29.382 C 0.266 29.493,0.856 30.457,1.484 31.525 C 3.298 34.610,6.507 38.401,9.117 40.543 C 9.649 40.979,10.758 41.903,11.583 42.598 C 15.343 45.762,21.875 49.582,27.833 52.098 C 29.712 52.892,31.512 53.675,31.833 53.837 C 33.920 54.895,46.447 58.608,46.786 58.270 C 46.850 58.206,46.966 56.975,47.043 55.535 C 47.121 54.095,47.249 52.767,47.327 52.583 C 47.406 52.400,47.555 51.298,47.658 50.135 C 47.762 48.972,47.998 47.022,48.182 45.802 C 48.366 44.582,48.560 43.238,48.612 42.817 L 48.707 42.050 47.895 41.850 C 45.194 41.187,37.374 38.332,35.750 37.417 C 35.383 37.210,34.108 36.537,32.917 35.921 C 28.940 33.866,24.714 30.733,23.980 29.294 L 23.663 28.672 24.290 27.966 C 24.635 27.577,25.179 26.990,25.500 26.661 C 26.659 25.473,30.554 23.166,32.820 22.324 C 33.332 22.134,34.135 21.798,34.606 21.577 C 37.541 20.199,46.705 18.276,53.827 17.544 L 55.070 17.417 55.758 15.750 C 56.472 14.023,57.626 11.646,57.821 11.500 C 57.882 11.454,58.148 11.042,58.410 10.583 C 60.818 6.384,63.089 4.010,66.609 2.013 C 68.626 0.869,68.598 0.888,68.466 0.749 C 68.335 0.612,63.986 0.514,61.917 0.601 M241.357 1.133 C 241.175 1.390,240.529 2.346,239.923 3.258 L 238.821 4.917 239.785 4.968 C 240.669 5.015,240.783 4.980,241.139 4.551 C 241.353 4.294,241.768 3.821,242.062 3.500 C 244.382 0.964,244.472 0.667,242.923 0.667 C 241.762 0.667,241.670 0.694,241.357 1.133 M229.667 10.750 L 229.667 20.333 230.917 20.333 L 232.167 20.333 232.167 10.750 L 232.167 1.167 230.917 1.167 L 229.667 1.167 229.667 10.750 M264.576 1.742 C 263.652 2.666,264.263 4.167,265.563 4.167 C 266.410 4.167,266.772 3.941,266.992 3.275 C 267.492 1.759,265.697 0.621,264.576 1.742 M317.606 1.679 C 316.545 2.513,317.195 4.167,318.583 4.167 C 319.588 4.167,320.000 3.759,320.000 2.762 C 320.000 1.493,318.630 0.873,317.606 1.679 M204.606 2.088 C 195.742 4.318,195.724 19.063,204.583 20.502 C 206.634 20.835,209.539 20.572,211.125 19.910 C 211.664 19.685,211.667 19.677,211.667 18.509 C 211.667 17.349,211.511 17.077,211.075 17.479 C 210.150 18.333,206.235 18.701,204.500 18.098 C 199.307 16.294,199.303 6.947,204.494 4.517 C 205.783 3.913,208.560 3.889,210.083 4.468 C 211.848 5.140,211.688 5.216,211.632 3.730 L 211.583 2.417 210.750 2.190 C 209.498 1.849,205.799 1.788,204.606 2.088 M298.333 2.090 C 292.867 3.596,290.218 9.868,292.518 15.860 C 294.110 20.009,299.505 21.859,304.542 19.983 L 305.500 19.626 305.500 18.480 C 305.500 17.176,305.513 17.184,304.203 17.734 C 299.371 19.765,295.011 17.524,294.291 12.639 C 293.415 6.693,298.594 2.389,304.013 4.561 C 305.537 5.171,305.500 5.191,305.500 3.756 L 305.500 2.513 304.625 2.234 C 303.379 1.838,299.565 1.750,298.333 2.090 M350.333 2.130 C 350.333 3.197,349.533 3.379,348.011 2.659 C 345.469 1.457,343.667 2.246,343.667 4.562 L 343.667 5.186 344.375 5.135 C 344.966 5.092,345.092 5.021,345.137 4.704 C 345.274 3.738,346.000 3.723,348.000 4.647 C 350.007 5.573,351.833 4.525,351.833 2.447 L 351.833 1.833 351.083 1.833 C 350.476 1.833,350.333 1.890,350.333 2.130 M336.125 3.702 L 335.000 4.050 335.000 5.608 L 335.000 7.167 334.000 7.167 L 333.000 7.167 333.000 8.250 L 333.000 9.333 333.984 9.333 L 334.968 9.333 335.033 13.792 C 335.102 18.582,335.171 19.000,336.025 19.786 C 336.871 20.565,338.651 20.877,340.042 20.491 L 340.667 20.318 340.667 19.242 C 340.667 18.651,340.632 18.167,340.589 18.167 C 340.546 18.167,340.250 18.291,339.931 18.443 C 339.193 18.795,338.426 18.604,337.934 17.945 C 337.604 17.504,337.580 17.238,337.531 13.405 L 337.479 9.333 339.073 9.333 L 340.667 9.333 340.667 8.250 L 340.667 7.167 339.083 7.167 L 337.500 7.167 337.500 5.250 C 337.500 4.196,337.444 3.338,337.375 3.344 C 337.306 3.350,336.744 3.511,336.125 3.702 M218.131 7.256 C 214.758 8.331,213.106 11.975,214.093 16.164 C 215.420 21.794,223.585 22.400,226.123 17.057 C 226.949 15.316,227.092 10.833,226.322 10.833 C 226.236 10.833,226.167 10.698,226.167 10.533 C 226.167 9.694,224.688 8.049,223.417 7.474 C 222.340 6.987,219.361 6.864,218.131 7.256 M239.332 7.147 C 234.039 8.870,233.350 17.841,238.333 20.141 C 239.999 20.909,242.835 20.815,244.774 19.927 L 245.667 19.518 245.667 18.426 C 245.667 17.140,245.746 17.165,244.182 17.958 C 241.111 19.514,237.984 18.239,237.703 15.316 L 237.624 14.500 242.062 14.500 L 246.500 14.500 246.494 13.292 C 246.480 10.343,245.531 8.367,243.667 7.402 C 243.024 7.070,240.099 6.897,239.332 7.147 M252.362 7.240 C 247.666 8.755,247.022 18.011,251.460 20.194 C 253.335 21.116,256.167 20.663,257.727 19.191 L 258.370 18.583 258.251 19.910 C 257.906 23.748,254.506 25.475,250.773 23.708 C 249.273 22.998,249.311 22.980,249.368 24.370 L 249.417 25.574 250.250 25.906 C 252.726 26.893,257.275 26.241,258.841 24.675 C 260.395 23.121,260.409 23.034,260.466 14.542 L 260.516 7.167 259.425 7.167 L 258.333 7.167 258.333 7.925 L 258.333 8.684 257.792 8.176 C 256.631 7.087,254.157 6.661,252.362 7.240 M273.680 7.357 C 270.617 8.327,268.921 12.766,270.138 16.629 C 272.015 22.585,281.108 21.911,282.420 15.719 C 283.727 9.550,279.507 5.513,273.680 7.357 M312.749 7.311 C 312.381 7.478,311.841 7.887,311.549 8.219 L 311.018 8.825 310.967 8.037 L 310.917 7.250 309.708 7.201 L 308.500 7.152 308.500 13.743 L 308.500 20.333 309.750 20.333 L 311.000 20.333 311.000 16.364 C 311.000 10.318,312.039 8.346,314.678 9.383 L 315.333 9.640 315.333 8.421 C 315.333 7.463,315.277 7.181,315.070 7.101 C 314.562 6.906,313.410 7.010,312.749 7.311 M325.580 7.300 C 323.655 7.966,322.917 8.945,322.917 10.833 C 322.917 12.840,323.603 13.621,326.276 14.657 C 328.038 15.340,328.619 15.722,328.950 16.417 C 329.871 18.348,326.843 19.371,324.142 18.042 C 323.537 17.744,322.995 17.500,322.938 17.500 C 322.880 17.500,322.833 18.055,322.833 18.734 L 322.833 19.969 323.625 20.249 C 327.428 21.593,331.600 19.810,331.653 16.817 C 331.685 14.988,330.713 14.007,327.557 12.685 C 325.297 11.739,324.824 11.147,325.414 10.005 C 325.970 8.930,328.347 8.651,329.952 9.474 C 330.992 10.007,331.021 9.982,330.966 8.630 L 330.917 7.426 330.250 7.226 C 329.218 6.916,326.570 6.958,325.580 7.300 M345.833 7.120 C 345.604 7.160,344.985 7.385,344.458 7.620 L 343.500 8.046 343.500 9.273 C 343.500 9.948,343.528 10.500,343.563 10.500 C 343.598 10.500,344.064 10.237,344.598 9.915 C 346.891 8.534,349.137 8.665,349.843 10.219 C 350.158 10.914,350.279 11.998,350.042 12.003 C 346.294 12.081,343.266 13.262,342.571 14.917 C 340.791 19.157,345.928 22.703,349.410 19.637 L 350.167 18.972 350.167 19.653 L 350.167 20.333 351.346 20.333 L 352.525 20.333 352.471 15.042 C 352.410 9.109,352.390 9.003,351.098 7.868 C 350.205 7.085,347.884 6.755,345.833 7.120 M359.388 7.322 C 355.947 8.561,354.287 12.996,355.748 17.048 C 357.373 21.556,365.142 21.935,367.301 17.612 C 368.930 14.350,368.103 9.544,365.628 7.889 C 364.237 6.960,361.169 6.681,359.388 7.322 M264.500 13.750 L 264.500 20.333 265.583 20.333 L 266.667 20.333 266.667 13.750 L 266.667 7.167 265.583 7.167 L 264.500 7.167 264.500 13.750 M317.333 13.750 L 317.333 20.333 318.500 20.333 L 319.667 20.333 319.667 13.750 L 319.667 7.167 318.500 7.167 L 317.333 7.167 317.333 13.750 M221.964 9.259 C 224.165 10.178,225.044 14.134,223.652 16.861 C 222.223 19.663,217.562 19.033,216.658 15.916 C 215.395 11.560,218.411 7.775,221.964 9.259 M242.790 9.433 C 243.317 9.816,243.920 10.961,244.075 11.875 L 244.182 12.500 240.924 12.500 C 239.133 12.500,237.667 12.434,237.667 12.354 C 237.667 10.000,240.974 8.114,242.790 9.433 M256.105 9.272 C 259.669 10.963,258.805 18.076,254.973 18.602 C 251.466 19.082,249.567 14.293,251.772 10.531 C 252.538 9.224,254.688 8.599,256.105 9.272 M278.178 9.458 C 280.649 10.710,280.994 15.940,278.730 17.807 C 276.591 19.569,273.192 18.441,272.397 15.706 C 271.108 11.272,274.507 7.599,278.178 9.458 M364.006 9.567 C 365.672 10.670,366.294 14.458,365.170 16.660 C 363.726 19.490,359.480 19.257,358.253 16.281 C 358.095 15.897,357.898 15.453,357.816 15.294 C 357.628 14.930,357.619 12.787,357.805 12.575 C 357.881 12.488,358.031 12.110,358.137 11.735 C 358.834 9.278,361.873 8.156,364.006 9.567 M350.141 15.239 C 349.951 19.002,344.667 20.182,344.667 16.462 C 344.667 14.975,346.418 14.128,349.727 14.016 L 350.203 14.000 350.141 15.239 " stroke="none" fill="#384094" fill-rule="evenodd"></path><path id="path1" d="M76.722 0.570 C 69.421 1.956,63.797 7.490,59.260 17.750 C 58.733 18.942,58.112 20.329,57.879 20.833 C 57.448 21.769,57.409 21.862,56.911 23.167 C 55.628 26.528,53.923 33.171,53.169 37.750 C 52.973 38.942,52.744 40.104,52.659 40.333 C 52.522 40.703,52.445 41.147,52.253 42.667 C 52.224 42.896,52.045 44.283,51.855 45.750 C 51.361 49.574,51.308 50.192,51.312 52.083 C 51.313 52.652,51.056 57.148,50.973 58.000 L 50.917 58.583 51.750 58.694 C 53.088 58.871,60.901 58.846,63.083 58.657 C 65.235 58.471,69.479 57.909,69.593 57.796 C 69.631 57.758,69.739 55.932,69.833 53.738 C 70.110 47.258,70.693 41.133,71.076 40.667 C 71.189 40.529,71.406 39.629,71.559 38.667 C 71.975 36.050,73.320 30.924,73.659 30.667 C 73.720 30.621,73.870 30.321,73.993 30.000 C 74.832 27.814,76.423 24.586,77.402 23.084 C 77.914 22.298,78.333 21.584,78.333 21.498 C 78.333 21.065,81.673 17.963,82.041 18.054 C 82.820 18.246,83.667 18.586,83.667 18.707 C 83.667 18.777,83.774 18.833,83.906 18.833 C 84.951 18.833,89.309 22.610,92.368 26.167 C 93.196 27.129,94.083 28.160,94.339 28.458 C 94.962 29.183,94.885 29.211,97.031 27.466 C 100.127 24.949,107.167 17.469,107.167 16.697 C 107.167 16.335,102.495 11.805,100.167 9.909 C 99.388 9.275,98.712 8.717,98.667 8.669 C 98.289 8.273,94.742 5.833,94.545 5.833 C 94.470 5.833,94.162 5.609,93.862 5.335 C 90.785 2.524,80.901 -0.223,76.722 0.570 M115.164 32.262 C 112.777 34.663,108.838 38.120,106.188 40.138 C 104.412 41.491,104.299 41.691,104.909 42.417 C 105.654 43.304,108.727 48.228,109.801 50.256 C 109.920 50.482,110.089 50.667,110.176 50.667 C 110.262 50.667,110.333 50.740,110.333 50.830 C 110.333 50.920,110.582 51.389,110.886 51.872 C 111.190 52.355,111.996 53.859,112.678 55.215 C 113.567 56.984,114.011 57.698,114.250 57.745 C 114.433 57.781,116.008 57.893,117.750 57.994 C 128.761 58.632,133.500 58.672,133.500 58.127 C 133.500 57.958,131.657 54.152,131.502 54.000 C 131.455 53.954,130.643 52.379,129.698 50.500 C 127.607 46.343,126.510 44.277,126.332 44.167 C 126.259 44.121,125.933 43.553,125.607 42.904 C 125.282 42.255,124.337 40.580,123.508 39.180 C 122.679 37.780,122.000 36.596,122.000 36.548 C 122.000 36.500,121.741 36.108,121.423 35.676 C 120.735 34.737,119.134 32.292,118.336 30.958 C 117.593 29.717,117.763 29.647,115.164 32.262 M208.035 30.667 C 205.242 31.060,203.397 31.796,201.000 33.472 C 199.712 34.372,198.000 35.976,198.000 36.282 C 198.000 36.402,197.943 36.500,197.873 36.500 C 197.736 36.500,197.731 36.510,196.799 38.398 C 194.470 43.115,195.050 49.869,198.112 53.678 C 198.625 54.317,199.634 55.333,199.755 55.333 C 199.817 55.333,200.097 55.526,200.377 55.761 C 204.025 58.831,215.504 59.214,219.786 56.409 L 220.170 56.157 220.127 49.287 L 220.083 42.417 214.417 42.370 C 207.164 42.311,207.981 41.979,208.037 44.963 L 208.083 47.417 210.875 47.462 L 213.667 47.508 213.667 49.977 L 213.667 52.446 213.208 52.664 C 211.834 53.315,208.069 53.031,206.250 52.138 C 200.619 49.375,201.022 39.456,206.875 36.754 C 209.811 35.398,217.352 35.912,218.355 37.535 C 218.821 38.289,219.000 37.479,219.000 34.611 L 219.000 31.712 218.095 31.428 C 215.806 30.708,210.560 30.311,208.035 30.667 M235.917 30.732 C 234.262 31.008,232.167 31.627,232.167 31.840 C 232.167 31.928,232.110 31.988,232.042 31.974 C 231.191 31.799,227.930 34.249,226.313 36.277 C 223.701 39.554,222.869 45.418,224.365 49.994 C 224.722 51.084,225.578 52.703,225.851 52.806 C 225.933 52.836,226.000 52.964,226.000 53.089 C 226.000 53.214,226.098 53.377,226.217 53.450 C 226.336 53.523,226.592 53.811,226.785 54.088 C 229.746 58.337,239.860 59.709,247.083 56.842 L 248.583 56.247 248.630 49.481 C 248.669 43.850,248.637 42.683,248.444 42.522 C 248.274 42.382,246.599 42.341,242.314 42.373 L 236.417 42.417 236.371 44.958 L 236.325 47.500 239.083 47.500 L 241.842 47.500 241.796 50.023 L 241.750 52.547 241.000 52.769 C 237.951 53.673,233.916 52.477,232.214 50.165 C 231.911 49.754,231.599 49.337,231.520 49.240 C 230.295 47.711,230.211 41.646,231.399 40.458 C 231.523 40.335,231.741 40.006,231.885 39.729 C 232.266 38.992,234.033 37.242,234.782 36.860 C 237.522 35.462,243.260 35.646,246.081 37.223 C 246.476 37.444,246.884 37.572,246.987 37.508 C 247.231 37.357,247.163 31.587,246.917 31.576 C 246.825 31.572,246.484 31.478,246.158 31.366 C 244.101 30.660,238.449 30.310,235.917 30.732 M311.750 30.679 C 311.108 30.767,310.171 30.951,309.667 31.087 C 309.162 31.224,308.622 31.368,308.465 31.407 C 308.083 31.502,306.938 32.039,306.833 32.171 C 306.787 32.229,306.246 32.547,305.629 32.878 C 305.013 33.208,304.388 33.577,304.240 33.698 C 303.509 34.292,301.695 36.222,301.486 36.626 C 301.357 36.877,301.213 37.121,301.167 37.167 C 300.897 37.436,299.647 40.253,299.392 41.167 C 299.000 42.573,298.960 46.946,299.327 48.333 C 299.460 48.837,299.576 49.288,299.585 49.333 C 299.723 50.020,299.882 50.500,299.972 50.501 C 300.033 50.501,300.224 50.844,300.397 51.264 C 301.529 54.016,304.351 56.483,307.507 57.480 C 312.165 58.950,319.406 58.493,323.375 56.477 L 324.000 56.160 324.000 49.254 L 324.000 42.349 317.917 42.337 L 311.833 42.326 311.833 44.913 L 311.833 47.500 314.583 47.500 L 317.333 47.500 317.333 49.984 L 317.333 52.469 316.591 52.722 C 314.785 53.337,310.983 52.908,309.456 51.916 C 307.067 50.364,306.085 48.213,306.109 44.583 C 306.136 40.544,307.769 37.919,311.177 36.439 C 313.398 35.474,318.481 35.819,321.332 37.128 C 321.837 37.360,322.344 37.569,322.458 37.593 C 322.619 37.627,322.667 36.957,322.667 34.676 L 322.667 31.715 321.458 31.365 C 318.931 30.634,314.411 30.314,311.750 30.679 M176.167 31.229 C 176.167 31.354,175.748 32.536,175.237 33.854 C 174.726 35.172,174.164 36.654,173.988 37.149 C 173.812 37.643,173.587 38.146,173.487 38.266 C 173.386 38.387,173.349 38.557,173.403 38.645 C 173.458 38.733,173.423 38.831,173.325 38.864 C 173.228 38.896,173.126 39.034,173.099 39.170 C 173.072 39.306,172.995 39.567,172.928 39.750 C 172.767 40.186,172.329 41.328,172.160 41.750 C 172.087 41.933,171.913 42.421,171.775 42.833 C 171.171 44.634,168.475 51.746,168.330 51.921 C 168.242 52.027,168.219 52.163,168.279 52.224 C 168.340 52.284,168.301 52.333,168.194 52.333 C 168.088 52.333,168.000 52.429,168.000 52.547 C 168.000 52.664,167.587 53.836,167.083 55.152 C 166.579 56.467,166.167 57.646,166.167 57.771 C 166.167 57.958,166.810 58.000,169.654 58.000 L 173.141 58.000 173.342 57.375 C 173.453 57.031,173.599 56.675,173.667 56.583 C 173.734 56.492,174.103 55.422,174.486 54.206 L 175.183 51.995 180.040 52.039 L 184.896 52.083 185.829 55.000 L 186.761 57.917 190.297 57.962 C 192.953 57.995,193.833 57.957,193.833 57.807 C 193.833 57.698,193.410 56.440,192.892 55.012 C 190.392 48.120,189.804 46.533,189.520 45.917 C 189.352 45.550,188.945 44.500,188.618 43.583 C 188.290 42.667,187.746 41.167,187.409 40.250 C 187.071 39.333,186.434 37.571,185.991 36.333 C 184.776 32.935,184.443 32.089,184.297 32.027 C 184.224 31.997,184.205 31.906,184.255 31.826 C 184.304 31.746,184.249 31.527,184.132 31.340 C 183.860 30.904,176.167 30.796,176.167 31.229 M253.667 44.491 L 253.667 58.007 256.958 57.962 L 260.250 57.917 260.294 52.792 L 260.338 47.667 261.144 47.667 C 263.169 47.667,263.864 48.378,267.258 53.917 C 267.708 54.650,268.162 55.340,268.268 55.450 C 268.374 55.561,268.787 56.180,269.185 56.825 L 269.910 58.000 273.622 58.000 C 275.712 58.000,277.333 57.934,277.333 57.850 C 277.333 57.679,273.268 51.588,271.159 48.600 C 270.485 47.644,269.544 46.727,268.725 46.228 L 268.142 45.873 269.344 45.401 C 270.972 44.762,272.419 43.387,273.221 41.718 C 273.538 41.059,273.755 40.477,273.704 40.426 C 273.653 40.375,273.690 40.333,273.787 40.333 C 273.884 40.333,273.956 40.240,273.947 40.125 C 273.938 40.010,273.994 39.545,274.072 39.092 C 274.478 36.737,273.031 33.699,270.976 32.591 C 270.485 32.326,270.028 32.029,269.961 31.930 C 269.894 31.831,269.837 31.815,269.836 31.895 C 269.834 31.975,269.709 31.938,269.558 31.812 C 269.406 31.686,269.237 31.593,269.183 31.604 C 269.059 31.629,268.916 31.593,268.083 31.326 C 267.601 31.171,265.519 31.093,260.542 31.043 L 253.667 30.974 253.667 44.491 M279.667 44.500 L 279.667 58.000 288.167 58.000 L 296.667 58.000 296.667 55.375 L 296.667 52.750 291.458 52.796 L 286.250 52.843 286.299 49.921 L 286.348 47.000 290.841 47.000 L 295.333 47.000 295.333 44.417 L 295.333 41.833 290.833 41.833 L 286.333 41.833 286.333 39.000 L 286.333 36.167 291.167 36.167 L 296.000 36.167 296.000 33.583 L 296.000 31.000 287.833 31.000 L 279.667 31.000 279.667 44.500 M336.032 31.458 C 335.935 31.710,335.470 32.967,334.998 34.250 C 334.527 35.533,333.659 37.862,333.070 39.424 C 332.482 40.986,332.000 42.331,332.000 42.413 C 332.000 42.495,331.856 42.866,331.681 43.239 C 331.233 44.191,330.756 45.315,330.509 46.000 C 330.394 46.321,330.232 46.733,330.149 46.917 C 330.067 47.100,329.817 47.775,329.595 48.417 C 328.978 50.196,328.010 52.877,327.848 53.250 C 327.768 53.433,327.457 54.258,327.156 55.083 C 326.854 55.908,326.471 56.862,326.304 57.202 C 326.137 57.542,326.000 57.862,326.000 57.913 C 326.000 57.965,327.627 57.986,329.615 57.962 L 333.230 57.917 333.944 55.667 C 334.338 54.429,334.762 53.117,334.887 52.750 L 335.114 52.083 339.959 52.039 L 344.804 51.995 345.140 53.039 C 345.324 53.613,345.750 54.965,346.086 56.042 L 346.696 58.000 350.237 58.000 C 354.300 58.000,354.063 58.073,353.636 56.949 C 353.456 56.473,353.189 55.746,353.044 55.333 C 352.899 54.921,352.734 54.546,352.677 54.500 C 352.621 54.454,352.033 52.917,351.371 51.083 C 349.723 46.518,347.653 40.892,346.956 39.083 C 346.370 37.562,344.182 31.591,344.071 31.208 C 344.025 31.049,343.087 31.000,340.109 31.000 L 336.207 31.000 336.032 31.458 M357.041 44.458 L 357.083 57.917 360.333 57.917 L 363.583 57.917 363.627 52.792 L 363.671 47.667 364.594 47.667 C 365.946 47.667,366.670 48.124,368.026 49.833 C 368.646 50.616,370.500 53.429,370.500 53.588 C 370.500 53.639,371.119 54.652,371.875 55.840 L 373.250 58.000 376.958 58.000 C 380.556 58.000,380.667 57.990,380.667 57.667 C 380.667 57.483,380.600 57.333,380.519 57.333 C 380.438 57.333,380.252 57.081,380.105 56.773 C 379.959 56.465,379.726 56.118,379.586 56.003 C 379.447 55.887,379.333 55.693,379.333 55.571 C 379.333 55.449,379.233 55.290,379.111 55.217 C 378.914 55.099,377.500 53.076,377.500 52.912 C 377.500 52.162,372.948 46.559,371.996 46.138 L 371.533 45.933 372.643 45.425 C 376.684 43.575,378.460 39.403,376.904 35.417 C 376.370 34.047,374.329 32.097,373.260 31.934 C 373.163 31.919,373.008 31.864,372.917 31.810 C 372.770 31.724,372.324 31.591,371.500 31.386 C 370.328 31.094,368.406 31.006,363.124 31.003 L 356.998 31.000 357.041 44.458 M383.000 44.502 L 383.000 58.003 391.458 57.960 L 399.917 57.917 399.963 55.375 L 400.009 52.833 394.838 52.833 L 389.667 52.833 389.667 49.917 L 389.667 47.000 394.167 47.000 L 398.667 47.000 398.667 44.417 L 398.667 41.833 394.167 41.833 L 389.667 41.833 389.667 39.000 L 389.667 36.167 394.500 36.167 L 399.333 36.167 399.333 33.583 L 399.333 31.000 391.167 31.000 L 383.000 31.000 383.000 44.502 M265.699 36.423 C 268.001 38.025,267.128 42.049,264.358 42.603 C 264.069 42.661,263.833 42.774,263.833 42.854 C 263.833 42.934,263.046 43.000,262.083 43.000 L 260.333 43.000 260.333 39.398 L 260.333 35.796 262.657 35.859 C 264.921 35.921,264.999 35.936,265.699 36.423 M368.250 36.020 C 371.113 36.813,371.211 41.730,368.378 42.441 C 368.170 42.493,368.000 42.596,368.000 42.669 C 368.000 42.742,367.850 42.763,367.667 42.715 C 367.483 42.667,367.333 42.703,367.333 42.795 C 367.333 42.894,366.594 42.972,365.500 42.989 L 363.667 43.016 363.667 39.425 L 363.667 35.833 365.625 35.834 C 366.702 35.835,367.883 35.918,368.250 36.020 M341.060 40.750 C 341.485 42.033,341.917 43.228,342.020 43.404 C 342.200 43.714,343.158 46.621,343.164 46.875 C 343.165 46.944,341.674 47.000,339.849 47.000 C 336.613 47.000,336.533 46.992,336.618 46.667 C 336.666 46.483,336.759 46.333,336.825 46.333 C 336.891 46.333,336.954 46.240,336.965 46.125 C 336.976 46.010,337.626 44.011,338.409 41.681 C 339.192 39.351,339.841 37.251,339.850 37.014 C 339.860 36.761,339.954 36.962,340.077 37.500 C 340.193 38.004,340.635 39.467,341.060 40.750 M181.676 42.298 C 182.496 44.799,183.167 46.880,183.167 46.923 C 183.167 46.965,181.696 47.000,179.899 47.000 C 177.262 47.000,176.647 46.958,176.715 46.780 C 176.762 46.659,177.266 45.103,177.836 43.322 C 178.406 41.541,178.922 40.046,178.984 40.000 C 179.045 39.954,179.270 39.354,179.485 38.667 C 180.046 36.865,180.050 36.858,180.122 37.333 C 180.157 37.563,180.856 39.796,181.676 42.298 " stroke="none" fill="#04abec" fill-rule="evenodd"></path><path id="path2" d="M114.494 32.792 L 113.583 33.750 114.542 32.839 C 115.069 32.338,115.500 31.907,115.500 31.881 C 115.500 31.757,115.341 31.901,114.494 32.792 M54.625 58.951 C 54.831 58.991,55.169 58.991,55.375 58.951 C 55.581 58.911,55.413 58.879,55.000 58.879 C 54.587 58.879,54.419 58.911,54.625 58.951 M59.627 58.951 C 59.834 58.991,60.134 58.990,60.294 58.948 C 60.453 58.906,60.283 58.874,59.917 58.875 C 59.550 58.877,59.420 58.911,59.627 58.951 " stroke="none" fill="#1c7dc7" fill-rule="evenodd"></path><path id="path3" d="M102.906 21.875 L 102.417 22.417 102.958 21.927 C 103.256 21.658,103.500 21.414,103.500 21.385 C 103.500 21.257,103.362 21.370,102.906 21.875 M116.328 30.958 L 115.417 31.917 116.375 31.006 C 117.265 30.159,117.410 30.000,117.286 30.000 C 117.260 30.000,116.829 30.431,116.328 30.958 M112.833 34.417 C 112.428 34.829,112.135 35.167,112.181 35.167 C 112.226 35.167,112.595 34.829,113.000 34.417 C 113.405 34.004,113.699 33.667,113.653 33.667 C 113.607 33.667,113.238 34.004,112.833 34.417 M51.169 52.125 C 51.171 52.459,51.212 52.519,51.320 52.348 C 51.402 52.219,51.431 52.013,51.383 51.890 C 51.248 51.538,51.166 51.627,51.169 52.125 M69.872 52.167 C 69.872 52.487,69.906 52.619,69.948 52.458 C 69.990 52.298,69.990 52.035,69.948 51.875 C 69.906 51.715,69.872 51.846,69.872 52.167 M288.719 52.791 C 290.168 52.819,292.493 52.819,293.885 52.791 C 295.278 52.763,294.092 52.741,291.250 52.741 C 288.408 52.741,287.269 52.764,288.719 52.791 M392.219 52.791 C 393.668 52.819,395.993 52.819,397.385 52.791 C 398.778 52.763,397.592 52.741,394.750 52.741 C 391.908 52.741,390.769 52.764,392.219 52.791 M51.127 53.667 C 50.929 54.339,50.967 54.991,51.182 54.621 C 51.277 54.459,51.331 54.084,51.302 53.788 C 51.252 53.273,51.245 53.267,51.127 53.667 M51.032 55.685 C 51.014 55.924,50.958 56.487,50.906 56.935 C 50.832 57.573,50.852 57.686,50.997 57.458 C 51.100 57.297,51.156 56.737,51.123 56.208 C 51.090 55.681,51.049 55.446,51.032 55.685 M69.712 56.667 C 69.712 57.079,69.745 57.248,69.784 57.042 C 69.824 56.835,69.824 56.498,69.784 56.292 C 69.745 56.085,69.712 56.254,69.712 56.667 M51.460 58.785 C 51.668 58.824,51.968 58.823,52.127 58.781 C 52.286 58.739,52.117 58.707,51.750 58.709 C 51.383 58.711,51.253 58.745,51.460 58.785 M56.542 58.956 C 57.069 58.990,57.931 58.990,58.458 58.956 C 58.985 58.923,58.554 58.896,57.500 58.896 C 56.446 58.896,56.015 58.923,56.542 58.956 " stroke="none" fill="#148cd4" fill-rule="evenodd"></path><path id="path4" d="M102.167 22.750 C 101.762 23.162,101.468 23.500,101.514 23.500 C 101.560 23.500,101.928 23.162,102.333 22.750 C 102.738 22.337,103.032 22.000,102.986 22.000 C 102.940 22.000,102.572 22.337,102.167 22.750 M99.740 25.208 L 99.250 25.750 99.792 25.260 C 100.090 24.991,100.333 24.748,100.333 24.719 C 100.333 24.590,100.196 24.703,99.740 25.208 M116.821 30.292 L 116.417 30.750 116.833 30.396 C 117.063 30.202,117.362 30.001,117.500 29.951 C 117.714 29.873,117.712 29.858,117.487 29.846 C 117.343 29.839,117.043 30.040,116.821 30.292 M112.409 34.708 L 111.750 35.417 112.458 34.758 C 113.117 34.145,113.243 34.000,113.117 34.000 C 113.090 34.000,112.771 34.319,112.409 34.708 M70.539 44.667 C 70.539 44.987,70.573 45.119,70.615 44.958 C 70.657 44.798,70.657 44.535,70.615 44.375 C 70.573 44.215,70.539 44.346,70.539 44.667 M70.375 46.417 C 70.377 46.783,70.411 46.914,70.451 46.706 C 70.491 46.499,70.490 46.199,70.448 46.040 C 70.406 45.880,70.374 46.050,70.375 46.417 M70.214 48.417 C 70.216 48.875,70.248 49.043,70.286 48.789 C 70.325 48.536,70.324 48.161,70.284 47.956 C 70.244 47.751,70.213 47.958,70.214 48.417 M70.055 51.250 C 70.055 51.892,70.086 52.134,70.122 51.788 C 70.158 51.442,70.157 50.917,70.120 50.621 C 70.083 50.325,70.054 50.608,70.055 51.250 M69.892 54.917 C 69.892 55.742,69.920 56.100,69.955 55.713 C 69.990 55.327,69.990 54.652,69.956 54.213 C 69.922 53.775,69.893 54.092,69.892 54.917 M53.460 58.951 C 53.668 58.991,53.968 58.990,54.127 58.948 C 54.286 58.906,54.117 58.874,53.750 58.875 C 53.383 58.877,53.253 58.911,53.460 58.951 " stroke="none" fill="#2471bc" fill-rule="evenodd"></path></g></svg>