<?xml version="1.0" standalone="no"?>
<svg xmlns:xlink="http://www.w3.org/1999/xlink" id="wave" style="transform:rotate(0deg); transition: 0.3s" viewBox="0 0 1440 100" version="1.1" xmlns="http://www.w3.org/2000/svg"><defs><linearGradient id="sw-gradient-0" x1="0" x2="0" y1="1" y2="0"><stop stop-color="rgba(255, 255, 255, 1)" offset="0%"/><stop stop-color="rgba(255, 255, 255, 1)" offset="100%"/></linearGradient></defs><path style="transform:translate(0, 0px); opacity:1" fill="#04ABEC" d="M0,10L120,23.3C240,37,480,63,720,75C960,87,1200,83,1440,76.7C1680,70,1920,60,2160,48.3C2400,37,2640,23,2880,28.3C3120,33,3360,57,3600,68.3C3840,80,4080,80,4320,71.7C4560,63,4800,47,5040,43.3C5280,40,5520,50,5760,55C6000,60,6240,60,6480,65C6720,70,6960,80,7200,76.7C7440,73,7680,57,7920,45C8160,33,8400,27,8640,33.3C8880,40,9120,60,9360,70C9600,80,9840,80,10080,71.7C10320,63,10560,47,10800,40C11040,33,11280,37,11520,31.7C11760,27,12000,13,12240,18.3C12480,23,12720,47,12960,50C13200,53,13440,37,13680,38.3C13920,40,14160,60,14400,66.7C14640,73,14880,67,15120,61.7C15360,57,15600,53,15840,56.7C16080,60,16320,70,16560,75C16800,80,17040,80,17160,80L17280,80L17280,100L17160,100C17040,100,16800,100,16560,100C16320,100,16080,100,15840,100C15600,100,15360,100,15120,100C14880,100,14640,100,14400,100C14160,100,13920,100,13680,100C13440,100,13200,100,12960,100C12720,100,12480,100,12240,100C12000,100,11760,100,11520,100C11280,100,11040,100,10800,100C10560,100,10320,100,10080,100C9840,100,9600,100,9360,100C9120,100,8880,100,8640,100C8400,100,8160,100,7920,100C7680,100,7440,100,7200,100C6960,100,6720,100,6480,100C6240,100,6000,100,5760,100C5520,100,5280,100,5040,100C4800,100,4560,100,4320,100C4080,100,3840,100,3600,100C3360,100,3120,100,2880,100C2640,100,2400,100,2160,100C1920,100,1680,100,1440,100C1200,100,960,100,720,100C480,100,240,100,120,100L0,100Z"/></svg>